<?xml version="1.0" standalone="no"?>
<!DOCTYPE svg PUBLIC "-//W3C//DTD SVG 20010904//EN"
 "http://www.w3.org/TR/2001/REC-SVG-20010904/DTD/svg10.dtd">
<svg version="1.0" xmlns="http://www.w3.org/2000/svg"
 width="128.000000pt" height="128.000000pt" viewBox="0 0 128.000000 128.000000"
 preserveAspectRatio="xMidYMid meet">

<g transform="translate(0.000000,128.000000) scale(0.100000,-0.100000)"
fill="#000000" stroke="none">
<path d="M433 1006 c-54 -30 -416 -322 -425 -342 -8 -18 -8 -30 1 -47 7 -12
104 -94 215 -182 183 -144 207 -160 242 -160 50 0 64 26 64 122 0 109 -21 103
381 103 313 0 337 1 352 18 14 15 17 40 17 125 0 158 28 147 -391 147 -389 0
-359 -9 -359 102 0 35 -6 74 -13 87 -14 29 -56 43 -84 27z"/>
</g>
</svg>
